<?xml version="1.0" encoding="UTF-8" standalone="no"?>
<svg
   xmlns:dc="http://purl.org/dc/elements/1.1/"
   xmlns:cc="http://creativecommons.org/ns#"
   xmlns:rdf="http://www.w3.org/1999/02/22-rdf-syntax-ns#"
   xmlns:svg="http://www.w3.org/2000/svg"
   xmlns="http://www.w3.org/2000/svg"
   id="svg3871"
   version="1.1"
   viewBox="0 0 66.277026 79.375003"
   height="300"
   width="250.49585">
  <defs
     id="defs3865" />
  <metadata
     id="metadata3868">
    <rdf:RDF>
      <cc:Work
         rdf:about="">
        <dc:format>image/svg+xml</dc:format>
        <dc:type
           rdf:resource="http://purl.org/dc/dcmitype/StillImage" />
        <dc:title></dc:title>
      </cc:Work>
    </rdf:RDF>
  </metadata>
  <g
     transform="translate(-56.096863,-83.269606)"
     id="layer1">
    <g
       transform="matrix(1.0266371,0,0,-1.0266371,15.318118,184.57725)"
       id="g124">
      <g
         id="g126">
        <path
           id="path128"
           style="fill:#f1b136;fill-opacity:1;fill-rule:evenodd;stroke:none"
           d="m 71.5184,21.7582 c -1.9103,0.5434 -4.0037,1.4632 -5.779,2.3267 -4.3963,2.1376 -8.5348,4.9215 -12.1533,8.208 -7.8284,7.1104 -12.1467,14.6953 -13.1431,25.2056 -0.7543,7.9535 -0.6035,15.5846 0.5508,23.4876 0.4893,3.3494 0.9862,6.8026 1.656,10.1228 l 0.1562,0.7742 0.6826,0.3974 c 0.6128,0.3569 1.3011,0.6749 1.9474,0.9626 1.7455,0.7767 3.5662,1.4258 5.3926,1.9837 6.7754,2.0699 14.0587,3.0002 21.1226,3.1932 l 0.0482,0.0014 0.0479,-0.0014 c 7.0643,-0.193 14.3476,-1.1233 21.123,-3.1932 1.826,-0.5579 3.647,-1.207 5.3926,-1.9837 0.6463,-0.2877 1.3345,-0.6057 1.9474,-0.9626 l 0.6826,-0.3974 0.1562,-0.7742 c 0.6698,-3.3202 1.1667,-6.7734 1.656,-10.1228 1.1542,-7.903 1.305,-15.5341 0.5507,-23.4876 -0.9963,-10.5103 -5.3146,-18.0952 -13.1431,-25.2056 -3.6184,-3.2865 -7.757,-6.0704 -12.1532,-8.208 -1.7757,-0.8635 -3.8688,-1.7833 -5.7793,-2.3267 l -0.4808,-0.1369 z" />
        <path
           id="path130"
           style="fill:#613493;fill-opacity:1;fill-rule:evenodd;stroke:none"
           d="m 71.9994,23.449 c 0,0 -8.8225,2.5076 -17.2315,10.1452 -8.409,7.6374 -11.7264,15.1212 -12.575,24.0701 -0.8487,8.9493 -0.4627,16.2015 0.5402,23.0678 1.0029,6.8661 1.6399,10.0293 1.6399,10.0293 0,0 9.2772,5.4003 27.6264,5.9014 18.3493,-0.5011 27.6265,-5.9014 27.6265,-5.9014 0,0 0.6369,-3.1632 1.6398,-10.0293 1.0029,-6.8663 1.389,-14.1185 0.5403,-23.0678 C 100.9573,48.7154 97.6399,41.2316 89.231,33.5942 80.8217,25.9566 71.9994,23.449 71.9994,23.449" />
        <path
           id="path132"
           style="fill:#ed3237;fill-opacity:1;fill-rule:evenodd;stroke:none"
           d="M 71.9994,61.3868 68.9652,60.558 v 0 -1.5047 -0.3665 l -2.8545,-0.752 v 1.8433 l -3.1053,-0.8484 v -1.8105 l -2.8545,-0.752 v 1.7827 l -3.0478,-0.8325 v -4.9025 l 14.8963,3.9254 14.8964,-3.9254 v 4.9025 l -3.0478,0.8325 v -1.7827 l -2.8545,0.752 v 1.8105 l -3.1057,0.8484 v -1.8433 l -2.8544,0.752 v 0.3665 1.5047 0 z M 86.8958,51.3737 V 49.4926 L 71.9994,53.4178 57.1031,49.4926 v 1.8811 l 14.8963,3.9254 z m 0,-2.9225 v -0.2373 l -3.4526,-3.2785 -11.4438,3.1243 -11.4437,-3.1243 -3.4526,3.2785 v 0.2373 l 14.8963,3.9254 z" />
        <path
           id="path134"
           style="fill:#00ae6f;fill-opacity:1;fill-rule:evenodd;stroke:none"
           d="M 71.9994,46.8351 70.0373,46.2946 V 24.1308 c 1.2345,-0.4748 1.9621,-0.6818 1.9621,-0.6818 0,0 0.7274,0.207 1.9622,0.6818 V 46.2946 Z M 82.275,36.7098 80.712,35.9368 v -8.5507 c 0.5094,0.2951 1.031,0.6089 1.563,0.9428 z M 75.4274,24.7275 c 1.1415,0.4892 2.5137,1.1333 4.0314,1.9562 v 10.2186 l 2.8162,1.2537 v 2.1408 l 1.1379,0.6173 v 2.7771 l -7.9855,2.1997 z m -13.7036,11.9823 1.5631,-0.773 v -8.5507 c -0.5094,0.2951 -1.0313,0.6089 -1.5631,0.9428 z m 6.8477,-11.9823 c -1.1415,0.4892 -2.5138,1.1333 -4.0317,1.9562 v 10.2186 l -2.816,1.2537 v 2.1408 l -1.1378,0.6173 v 2.7771 l 7.9855,2.1997 z" />
        <path
           id="path136"
           style="fill:#ed3237;fill-opacity:1;fill-rule:evenodd;stroke:none"
           d="m 62.8435,76.4799 v -2.0444 c 0,0 -3.9345,-0.1927 -10.0292,-1.8901 -6.0948,-1.6974 -7.4835,-2.2374 -7.4835,-2.2374 0,0 7.7148,4.9377 17.5127,6.1719 z m 18.3118,0 v -2.0444 c 0,0 3.9345,-0.1927 10.0293,-1.8901 6.0948,-1.6974 7.4835,-2.2374 7.4835,-2.2374 0,0 -7.7151,4.9377 -17.5128,6.1719" />
      </g>
      <path
         id="path138"
         style="fill:#ed3237;fill-opacity:1;fill-rule:evenodd;stroke:none"
         d="m 73.3141,61.541 c 0,0 1.4973,0.3277 1.9483,2.5265 0.4507,2.1989 -1.2807,3.337 -1.2807,3.337 0,0 0.2526,-0.7331 0,-1.3309 -0.2526,-0.5981 -0.9561,-0.3858 -0.6676,0.5786 0.2889,0.9643 0.7396,2.0058 0.0542,2.9701 -0.6854,0.9643 -2.0381,0.7716 -2.0381,0.7716 0,0 0.7752,-0.6171 0.7934,-1.5236 0.0181,-0.9066 -0.9199,-1.3116 -1.533,-1.0418 -0.6134,0.2702 -0.3608,1.0803 -0.3608,1.0803 0,0 -1.7771,-1.5142 -1.7411,-3.848 0.0363,-2.3338 1.8941,-3.3174 1.8941,-3.3174 0,0 -0.3517,1.0511 0.072,1.9672 0.4241,0.9162 1.3709,1.1285 1.3709,1.1285 0,0 -0.523,-0.4629 0.036,-0.9065 0.5592,-0.4436 0.83,-0.1256 0.911,-0.0096 0.0811,0.1156 0.2344,0.2602 0.4779,0.0963 0.2435,-0.1638 1.1365,-1.4079 0.0635,-2.4783" />
      <path
         id="path140"
         style="fill:#fefefe;fill-opacity:1;fill-rule:evenodd;stroke:none"
         d="m 46.9131,87.586 c 0,0 -0.5522,-2.6793 -1.0151,-6.0741 -0.4629,-3.3945 -0.7254,-7.1739 -0.7254,-7.1739 v 0 c 0.3141,0.1664 0.953,0.4898 1.9143,0.9082 v 3e-4 l 0.4892,5.1276 c 0,0 2.1603,0.5786 2.7967,1.1957 0.6364,0.6173 1.1764,1.4468 1.3309,2.5653 0.1542,1.1186 0.5881,3.8478 0.5881,3.8478 0,0 0.1061,0.6845 -0.3665,0.945 -0.4578,0.2523 -1.0324,0.1208 -1.4153,-0.0093 l -3e-4,-3e-4 -0.0184,-0.0062 -0.0182,-0.0063 c -1.5879,-0.5519 -2.8488,-1.0377 -3.56,-1.3198 z M 98.5544,74.3315 c 0,0 0.2217,0.0094 0.2409,0.1828 0.0196,0.1735 -0.964,4.8025 -2.2563,8.8526 -1.2924,4.0505 -1.7176,4.9697 -1.9679,5.1418 -0.2724,0.1006 -1.0221,0.3727 -2.1194,0.7333 -0.0859,-0.0575 -0.1712,-0.1494 -0.1848,-0.2911 -0.0292,-0.2991 -0.7815,-11.3119 -0.7815,-11.3119 0,0 -0.0463,-0.3884 0.174,-0.4703 l 0.0043,-0.0014 c 0.5363,-0.199 1.0732,-0.4042 1.6027,-0.6123 h 2e-4 c 0,0 0.3447,-0.0014 0.3688,0.1383 0.0142,0.0822 0.0567,1.2419 0.1129,2.7009 0.3957,-0.1211 0.9065,-0.2877 1.3478,-0.4641 0.3952,-0.1581 0.7943,-0.3322 1.1118,-0.4748 0.5335,-2.1824 0.6624,-3.0401 0.6624,-3.0401 0,0 0.0389,-0.3623 0.2889,-0.4709 l 8e-4,-2e-4 c 0.5035,-0.218 0.972,-0.4244 1.3944,-0.6126 z m -4.7222,7.1646 c 0.0158,0.3846 0.0323,0.7659 0.049,1.1327 0.1157,2.5458 0.0385,3.9152 0.0385,3.9152 0,0 0.7101,-2.0554 1.6886,-5.743 -0.1899,0.097 -0.4365,0.2123 -0.7389,0.3325 -0.3178,0.1264 -0.6962,0.2543 -1.0372,0.3626 z m -9.9389,10.0746 c -0.0204,-6e-4 -0.2341,-0.0108 -0.2066,-0.2038 0.0289,-0.2024 0.0964,-1.0029 0.0964,-1.0029 0,0 0.0484,-0.3376 0.299,-0.4051 0.2506,-0.0675 1.8998,-0.4436 1.8998,-0.4436 0,0 0.3376,-2.9217 0.6656,-6.4514 0.3279,-3.5297 0.405,-4.195 0.405,-4.195 0,0 0.0601,-0.3285 0.2506,-0.377 l 0.0046,-0.0011 c 0.6562,-0.1659 1.2699,-0.3339 1.8388,-0.4998 l 3e-4,3e-4 c 0,0 0.1814,0.0386 0.1814,0.1542 0,0.1157 -0.2988,3.3846 -0.646,6.567 -0.3473,3.1825 -0.6075,4.3589 -0.6075,4.3589 0,0 0.6749,-0.2217 1.1957,-0.3858 0.521,-0.1639 0.521,-0.1639 0.521,-0.1639 0,0 0.2795,-0.0674 0.2602,0.0967 -0.0193,0.1638 -0.1639,1.2631 -0.1639,1.2631 0,0 -0.0331,0.165 -0.352,0.2616 l -0.0156,0.0046 c -1.6384,0.4751 -3.5649,0.9822 -5.6268,1.423 z m -4.1077,0.7344 c 3e-4,-5e-4 -0.013,-2e-4 -0.0116,-0.0181 0.0309,-0.3546 0.3473,-4.0107 0.5672,-7.7859 0.2316,-3.9731 0.2311,-4.3685 0.2311,-4.3685 0,0 0.0731,-0.3464 0.2945,-0.3787 l 0.0122,-0.002 c 0.665,-0.0955 1.3116,-0.1987 1.9386,-0.3081 l 8e-4,3e-4 c 0,0 0.2418,0.0808 0.2515,0.2831 0.0099,0.2027 -0.2988,4.2724 -0.5687,7.6088 -0.2701,3.3367 -0.3665,4.089 -0.4147,4.2914 -0.0473,0.1987 -0.2857,0.3535 -0.4541,0.3875 -0.6009,0.1068 -1.2081,0.2055 -1.8181,0.2939 -0.0142,0.002 -0.0145,-0.0057 -0.0287,-0.0037 z m -6.6469,-6.9514 h -1.7552 c 0,0 -0.4003,-0.0048 -0.4003,-0.3617 0,-0.3569 0,-1.8904 0,-1.8904 0,0 -0.0286,-1.1188 0.6078,-1.7938 0.4767,-0.5057 0.9915,-0.7299 1.6132,-0.9201 1.0941,-0.2883 2.2223,-0.2976 3.236,-0.1536 h 6e-4 c 0,0 0.9362,0.2154 1.4088,0.8614 0.4725,0.6463 0.4632,1.4658 0.434,2.2952 -0.029,0.8292 -0.135,3.2307 -0.135,3.2307 0,0 0.0292,0.6075 -0.5014,0.8294 -0.5304,0.2217 -4.1224,1.4341 -4.1224,1.4341 v 1.8226 c 0,0 -0.0678,0.5015 0.5108,0.5015 0.5788,0 1.4272,-0.0193 1.495,-0.3762 0.0674,-0.3566 0.0578,-1.186 0.0578,-1.186 0,0 0.0193,-0.3569 0.2795,-0.3954 0.2605,-0.0386 1.8998,-0.0967 1.8998,-0.0967 0,0 0.2315,-0.0096 0.2026,0.2412 -0.0289,0.2506 0.0289,1.5526 -0.2026,2.0829 -0.224,0.514 -1.1742,1.1895 -2.4951,1.2688 l -0.0249,0.0012 -0.1384,0.0056 c -1.3756,0.0411 -2.7187,0.0995 -3.4265,-0.3977 -0.7138,-0.5017 -0.6463,-1.4853 -0.6463,-1.7263 0,-0.2412 0,-2.8834 0,-2.8834 0,0 0,-0.3472 0.3954,-0.4918 0.3955,-0.1446 3.9442,-1.2923 3.9442,-1.2923 0,0 0.3855,-0.1256 0.3855,-0.3087 0,-0.1834 0.0626,-2.0684 0.0626,-2.0684 0,0 0.0434,-0.603 -0.4436,-0.6849 -0.487,-0.0819 -1.0658,-0.0482 -1.2923,0.0193 -0.2268,0.0675 -0.5593,0.2985 -0.54,0.9351 0.019,0.6367 0.0385,1.1427 0.0385,1.1427 0,0 -0.0048,0.3617 -0.4481,0.3557 z M 62.3285,91.9466 C 62.3271,91.938 61.9934,90.1973 61.647,85.0411 61.2998,79.8721 61.2334,79.5183 61.4256,79.4058 l 9e-4,-3e-4 c 0.6097,0.112 1.2356,0.2205 1.8794,0.3243 0.0669,0.0111 0.1338,0.021 0.2007,0.0315 l 8e-4,8e-4 c 0,0 0.2418,0.0519 0.2707,0.5051 0.0292,0.4536 0.193,4.5037 0.193,4.5037 l 1.1574,0.1449 1.0029,-4.5133 c 0,0 0.0981,-0.2869 0.3178,-0.2656 l 0.0153,5e-4 c 0.644,0.0635 1.2849,0.1151 1.9213,0.1545 v 3e-4 c 0,0 0.2917,0.0714 0.2532,0.3509 -0.0389,0.2798 -1.1574,4.7353 -1.1574,4.7353 0,0 0.6851,0.2988 1.0131,0.8966 0.3279,0.5978 0.405,0.9933 0.405,1.8227 0,0.8294 0.0434,2.9746 0.0434,2.9746 0,0 0.0578,0.6846 -0.3761,1.0222 -0.281,0.2186 -0.6231,0.3847 -1.2824,0.4692 -1.7448,-0.1517 -3.4059,-0.3666 -4.9561,-0.6171 z m 2.0146,-1.2119 -0.2603,-3.7802 1.6974,0.2026 c 0,0 0.5015,0.135 0.6171,0.4147 0.1157,0.2795 0.1157,0.9837 0.1157,1.4562 0,0.4725 0.0193,1.5233 0.0193,1.5233 0,0 0.0192,0.3666 -0.3087,0.3858 -0.3277,0.0193 -1.8805,-0.2024 -1.8805,-0.2024 z m -9.9627,-0.5706 c 0,0 -0.6545,-3.2896 -1.1336,-8.0688 -0.3021,-3.0138 -0.4303,-4.2664 -0.4838,-4.7809 1.8277,0.5607 3.9747,1.1319 6.4377,1.6523 l 0.0012,6e-4 c 0,0 0.1593,0.1094 0.1785,0.3407 0.0193,0.2316 0.1061,2.1506 0.1061,2.1506 0,0 0.0096,0.1735 -0.3087,0.135 -0.3181,-0.0386 -4.0133,-1.0097 -4.0133,-1.0097 0.1094,1.1452 0.2338,2.4174 0.3464,3.4894 0,0 0.5811,0.2013 1.5743,0.4615 0.9933,0.2605 1.408,0.3183 1.408,0.3183 0,0 0.3569,0.0868 0.4051,0.4147 0.0482,0.328 0.1641,1.5574 0.1641,1.5574 0,0 0.0867,0.3472 -0.2894,0.3183 -0.3246,-0.0252 -2.1305,-0.4958 -2.9962,-0.8039 0.2389,1.7887 0.4115,2.7666 0.4115,2.7666 0,0 1.6294,0.3663 2.7386,0.6169 1.1089,0.2508 1.3499,0.3183 1.3499,0.3183 l 0.2375,1.5868 C 58.085,91.169 55.997,90.6395 54.3804,90.1641 Z M 48.5308,86.652 47.8942,82.6982 c 0,0 1.2827,0.4147 1.5432,0.6846 0.2602,0.2701 0.3568,0.6078 0.4436,1.2441 0.0867,0.6364 0.3084,2.1796 0.3084,2.1796 0,0 0.0482,0.4677 -0.5978,0.2409 -0.6463,-0.2265 -1.0608,-0.3954 -1.0608,-0.3954" />
      <path
         id="path142"
         style="fill:#fefefe;fill-opacity:1;fill-rule:evenodd;stroke:none"
         d="m 69.4103,78.486 h 1.0508 c 0.3926,0 0.7137,-0.3209 0.7137,-0.713 v -1.5318 0 -0.0011 -0.0012 -0.002 c 6e-4,-0.0442 0.0015,-0.4008 -0.0575,-0.5499 -0.0627,-0.159 -0.8581,-1.9604 -0.8581,-1.9604 0,0 -0.053,-0.1395 -0.2267,-0.1395 -0.1735,0 -0.7039,0 -0.7039,0 0,0 -0.1204,0.0193 -0.0337,0.2359 0.0867,0.2165 0.7135,1.4496 0.7328,1.5122 0.0195,0.0627 0,0.1931 0,0.1931 h -0.6174 c -0.3926,0 -0.7138,0.3209 -0.7138,0.7129 v 1.5318 c 0,0.3921 0.3212,0.713 0.7138,0.713 z m -1.5747,-0.002 -0.8243,-0.1094 -0.5026,-0.0667 v -0.9343 l 0.5026,0.0868 v -3.8733 h 0.8243 z m 8.0062,0.002 h 0.8478 c 0.4513,0 0.8201,-0.3691 0.8201,-0.8201 v -1.3056 c 0,-0.1976 -0.3183,-0.3274 -0.3623,-0.3445 l -0.0025,-8e-4 0.0025,-0.0011 c 0.044,-0.0168 0.3623,-0.1463 0.3623,-0.3442 v -1.2625 c 0,-0.4513 -0.3688,-0.8201 -0.8201,-0.8201 h -0.8478 c -0.451,0 -0.8201,0.3688 -0.8201,0.8201 v 0.2616 0 c 0.0012,0.0046 0.0352,0.1446 0.1491,0.1446 0.1157,0 0.6268,0 0.6268,0 0,0 0.1207,-0.0097 0.1207,-0.0868 0,-0.0771 0,-0.229 0,-0.229 0,0 0.0216,-0.1035 0.0916,-0.1035 0.07,0 0.5689,0 0.5689,0 0,0 0.0964,0.0188 0.0964,0.1299 0,0.1108 0,0.892 0,0.892 0,0 0.0193,0.1446 -0.1687,0.1446 -0.1879,0 -0.699,0 -0.699,0 0,0 -0.2171,-0.0193 -0.2171,0.1928 v 0.204 0 0 3e-4 6e-4 3e-4 5e-4 9e-4 6e-4 0 0.0011 0.0011 0.0012 0.0011 0 0.0014 0.0014 0.0015 2e-4 0.0017 0.002 3e-4 0.0017 0.0023 0 0.0022 0.0017 6e-4 0.0026 5e-4 0.0023 0.0011 0.0017 0.0017 0.0012 0.0022 9e-4 0.0023 0.0011 0.0017 0.0017 0.0011 0.0026 3e-4 0.0025 9e-4 0.0017 0.0019 3e-4 0.002 0.002 0 0.002 0.0017 3e-4 0.0014 0.0017 0.0011 0 0.0014 0.0012 0.0011 8e-4 0 9e-4 6e-4 5e-4 6e-4 3e-4 3e-4 0 3e-4 0.2038 c 0,0.212 0.2171,0.1927 0.2171,0.1927 0,0 0.5111,0 0.699,0 0.188,0 0.1687,0.1446 0.1687,0.1446 0,0 0,0.7812 0,0.892 0,0.1109 -0.0964,0.1299 -0.0964,0.1299 0,0 -0.4989,0 -0.5689,0 -0.07,0 -0.0916,-0.1038 -0.0916,-0.1038 0,0 0,-0.1519 0,-0.229 0,-0.0771 -0.1207,-0.0868 -0.1207,-0.0868 0,0 -0.5111,0 -0.6268,0 -0.1139,0 -0.1479,0.1404 -0.1491,0.1446 v 3e-4 0.343 c 0,0.451 0.3691,0.8201 0.8201,0.8201 z m -3.2151,0 h 1.0707 0.6846 v -0.6846 -0.2027 h -1.5526 v -0.8872 l 1.3694,-0.4437 c 0,0 0.1832,-0.0773 0.1832,-0.1689 v -1.8275 c 0,-0.3764 -0.3082,-0.6843 -0.6846,-0.6843 h -1.0707 c -0.3767,0 -0.6845,0.3079 -0.6845,0.6843 v 0.4603 c 0,0.0964 0.1343,0.0916 0.1343,0.0916 0,0 0.4439,0 0.5692,0 0.1253,0 0.152,-0.0986 0.152,-0.0986 0,0 0,-0.1446 0,-0.2362 0,-0.0918 0.1134,-0.0966 0.1134,-0.0966 0,0 0.2965,0 0.4748,0 0.1785,0 0.1689,0.1496 0.1689,0.1496 0,0 0,0.7716 0,0.9017 0,0.1304 -0.1468,0.1591 -0.1468,0.1591 0,0 -1.1574,0.3424 -1.2972,0.3906 -0.1374,0.0476 -0.1678,0.1698 -0.1686,0.1735 v 2e-4 1.4321 0.2027 0.6846 z m -2.9015,-0.8003 h 0.4028 c 0.1145,0 0.2083,-0.0935 0.2083,-0.208 v -0.9854 c 0,-0.1145 -0.0938,-0.208 -0.2083,-0.208 h -0.4028 c -0.1148,0 -0.2086,0.0935 -0.2086,0.208 v 0.9854 c 0,0.1145 0.0938,0.208 0.2086,0.208" />
    </g>
  </g>
</svg>
