<?xml version="1.0" encoding="UTF-8" standalone="no"?>
<svg
   xmlns:dc="http://purl.org/dc/elements/1.1/"
   xmlns:cc="http://creativecommons.org/ns#"
   xmlns:rdf="http://www.w3.org/1999/02/22-rdf-syntax-ns#"
   xmlns:svg="http://www.w3.org/2000/svg"
   xmlns="http://www.w3.org/2000/svg"
   id="svg15"
   viewBox="0 0 242 326.01157"
   style="clip-rule:evenodd;fill-rule:evenodd;image-rendering:optimizeQuality;shape-rendering:geometricPrecision;text-rendering:geometricPrecision"
   version="1.1"
   height="326.01157"
   width="242"
   xml:space="preserve"><metadata
   id="metadata19"><rdf:RDF><cc:Work
       rdf:about=""><dc:format>image/svg+xml</dc:format><dc:type
         rdf:resource="http://purl.org/dc/dcmitype/StillImage" /><dc:title></dc:title></cc:Work></rdf:RDF></metadata>
 <defs
   id="defs4">
  <style
   id="style2"
   type="text/css">
   <![CDATA[
    .fil2 {fill:none}
    .fil0 {fill:#E00820}
    .fil1 {fill:white}
   ]]>
  </style>
 
  
  
  
 </defs>
 <g
   transform="matrix(0.11571842,0,0,0.11571842,-52.577628,-10.571842)"
   id="_2416537233200">
   <path
   class="fil0"
   d="m 463,100 h 2074 c 0,538 0,1076 0,1614 -53,907 -584,1186 -1039,1186 -498,0 -1003,-389 -1035,-1186 z"
   id="path7"
   style="fill:#e00820" />
   <path
   class="fil1"
   d="m 543,179 v 1533 c 4,98 16,195 37,291 18,-43 50,-54 89,-23 76,62 158,6 220,-142 227,-2 340,-2 340,-2 0,-196 0,-295 0,-295 h 186 l -1,-394 c -27,-1 -49,-24 -49,-51 0,-27 22,-50 50,-50 V 711 c 6,-32 28,-58 57,-70 v 0 c 2,-15 -2,-39 -18,-71 -21,-45 -1,-81 59,-126 46,45 73,77 53,126 -14,34 -18,49 -20,70 v 0 c 30,12 52,38 59,71 v 334 c 27,2 47,24 47,50 0,26 -20,48 -47,50 v 395 c 122,0 183,0 183,0 l 2,297 c 225,-1 337,-1 337,-1 62,140 146,196 212,150 42,-29 70,-31 85,-8 17,-88 28,-178 33,-267 0,-510 0,-1021 0,-1532 z m 930,2613 v -4 l 32,-13 31,14 v 2 c 0,0 -32,13 -63,1 z m 34,-2588 28,87 h 92 l -75,54 29,87 -74,-54 -74,54 28,-87 -74,-54 h 92 z m 497,1371 -28,87 h -92 l 74,54 -28,87 74,-54 74,54 -28,-87 74,-54 h -92 z m -231,-1328 -28,87 h -92 l 75,54 -29,87 74,-54 75,54 -29,-87 75,-54 h -92 z m 237,142 -28,87 h -92 l 74,54 -28,87 74,-54 74,54 -28,-87 74,-54 h -92 z m 181,203 -28,88 -92,-1 74,54 -28,87 74,-54 74,54 -28,-87 74,-54 -92,1 z m 91,267 -28,87 h -92 l 74,54 -28,87 74,-54 74,54 -29,-87 75,-54 h -92 z m -8,262 -28,88 -92,-1 74,54 -28,88 74,-55 74,55 -29,-88 75,-54 -92,1 z m -122,232 -29,87 h -92 l 75,54 -29,87 75,-54 74,54 -29,-87 75,-54 h -92 z m -1140,222 28,87 h 92 l -75,54 29,87 -74,-54 -75,54 29,-87 -75,-54 h 92 z m 230,-1328 28,87 h 92 l -74,54 28,87 -74,-54 -74,54 28,-87 -74,-54 h 92 z m -236,142 28,87 h 92 l -75,54 29,87 -74,-54 -75,54 29,-87 -74,-54 h 91 z m -181,203 28,88 92,-1 -75,54 29,87 -74,-54 -75,54 29,-87 -74,-54 91,1 z m -91,267 28,87 h 92 l -75,54 29,87 -74,-54 -74,54 28,-87 -74,-54 h 92 z m 8,262 28,88 92,-1 -75,54 29,88 -74,-55 -74,55 28,-88 -74,-54 92,1 z m 122,232 28,87 h 92 l -74,54 28,87 -74,-54 -74,54 28,-87 -74,-54 h 92 z m 629,-681 h 8 c 24,0 44,20 44,44 v 331 h -37 V 889 h -17 v 158 h -42 V 716 c 0,-24 20,-44 44,-44 z m -74,2030 8,-36 33,-10 18,24 -11,33 -28,8 z m 182,7 h -6 l -17,18 -2,31 4,2 c 0,0 16,-19 21,-51 z m -195,-1 7,1 20,18 -1,32 -6,1 c 0,0 -19,-24 -20,-52 z m 11,-55 c 12,-20 31,-36 56,-47 l 5,12 -16,29 -39,10 z m 116,-47 -3,13 20,26 35,12 5,-3 c 0,0 -12,-30 -57,-48 z m -49,67 h 38 l 19,-24 -20,-24 h -35 l -17,25 z m 46,6 20,-25 30,12 9,36 -17,19 -31,-8 z m 6,43 33,9 -1,25 -30,23 -30,-12 v -23 z m -96,36 2,-29 28,-7 29,22 v 24 l -28,11 z m 62,-165 c 58,0 106,48 106,106 0,59 -48,106 -106,106 -59,0 -106,-47 -106,-106 0,-58 47,-106 106,-106 z m -617,-21 c 165,158 382,249 613,249 228,0 447,-75 616,-232 6,-6 12,-11 18,-17 z m -28,-93 v -257 c 30,0 109,0 131,4 92,15 93,139 -6,152 -22,3 -41,4 -69,4 v 97 z m 1096,-81 h 59 c 2,62 73,54 92,40 22,-16 20,-39 -12,-55 -45,-23 -131,-26 -131,-92 1,-83 138,-90 182,-53 18,14 23,32 24,56 l -52,1 c -2,-25 -18,-42 -47,-43 -54,0 -57,37 -40,51 37,31 153,30 151,106 -2,87 -150,92 -195,56 -19,-15 -33,-35 -31,-67 z m -104,81 v -257 h 58 v 257 z m -271,-81 h 59 c 2,62 73,54 92,40 22,-16 20,-39 -12,-55 -45,-23 -131,-26 -131,-92 1,-83 138,-90 182,-53 18,14 23,32 24,56 l -52,1 c -2,-25 -18,-42 -47,-43 -54,0 -57,37 -39,51 36,31 152,30 150,106 -2,87 -150,92 -195,56 -19,-15 -33,-35 -31,-67 z m -248,81 v -257 l 153,2 c 69,2 88,110 6,126 36,7 43,16 48,57 3,30 4,50 19,74 l -66,-1 c -13,-20 -5,-85 -18,-96 -15,-13 -59,-7 -83,-7 v 102 z m 59,-144 64,-2 c 38,-2 43,-64 0,-70 l -64,-1 z m -294,147 v -260 h 187 v 43 h -128 v 62 h 120 v 44 h -120 v 68 h 132 v 43 z M 913,2265 v 74 c 38,0 82,7 82,-37 0,-44 -43,-37 -82,-37 z M 649,2000 c 91,57 196,16 257,-119 h 189 c -183,159 -329,205 -472,155 -9,-4 -15,-12 -14,-22 3,-19 23,-25 40,-14 z m -57,51 c 6,23 15,55 23,78 h 1771 c 7,-23 14,-46 20,-69 -19,7 -40,14 -65,14 -553,2 -1105,4 -1658,2 -29,0 -62,-11 -91,-25 z m 1780,-51 c -91,57 -196,16 -258,-119 h -188 c 183,159 329,205 472,155 9,-4 15,-12 14,-22 -3,-19 -23,-25 -40,-14 z m -669,-119 h 61 v 166 h -61 z m -341,6 h 310 v 35 h -310 z m 0,118 h 310 v 35 h -310 z m 0,-59 h 310 v 35 h -310 z m -93,-65 h 62 v 166 h -62 z m -6,-307 h 103 v 43 h 400 v 86 h -400 v 112 h -103 z m 152,-494 h 189 c 9,0 16,8 16,17 v 0 c 0,9 -7,16 -16,16 h -189 c -9,0 -17,-7 -17,-16 v 0 c 0,-9 8,-17 17,-17 z m 34,66 h 42 v 320 h 17 v -320 h 37 v 393 h -96 z"
   id="path9"
   style="fill:#ffffff" />
  </g>
</svg>